<?xml version="1.0" standalone="no"?>
<!DOCTYPE svg PUBLIC "-//W3C//DTD SVG 20010904//EN"
 "http://www.w3.org/TR/2001/REC-SVG-20010904/DTD/svg10.dtd">
<svg version="1.0" xmlns="http://www.w3.org/2000/svg"
 width="1122.000000pt" height="1280.000000pt" viewBox="0 0 1122.000000 1280.000000"
 preserveAspectRatio="xMidYMid meet">
<g transform="translate(0.000000,1280.000000) scale(0.100000,-0.100000)"
fill="#000000" stroke="none">
<path d="M2925 12790 c-353 -55 -664 -287 -811 -605 -210 -455 -77 -996 319
-1299 133 -101 288 -170 455 -202 98 -19 280 -18 383 2 406 77 728 379 836
782 23 85 26 117 27 262 1 143 -2 177 -23 255 -53 202 -140 356 -285 501 -145
144 -301 233 -496 283 -97 25 -307 36 -405 21z"/>
<path d="M431 11364 c-242 -65 -431 -330 -431 -604 0 -137 2 -140 550 -1280
286 -597 539 -1116 562 -1155 23 -38 73 -102 112 -141 113 -112 238 -163 376
-151 139 12 162 24 824 452 342 221 626 404 633 408 8 5 150 -339 463 -1124
248 -622 449 -1137 447 -1143 -3 -6 -399 -265 -881 -575 -657 -423 -890 -578
-932 -620 -108 -109 -189 -260 -234 -438 -21 -81 -27 -140 -60 -593 -18 -244
-51 -675 -200 -2585 -86 -1106 -88 -1146 -79 -1225 40 -329 272 -567 572 -587
317 -21 618 223 707 572 17 64 46 408 147 1727 l127 1647 496 309 c1571 980
1460 913 1469 889 5 -12 70 -166 144 -342 74 -176 259 -617 412 -980 297 -709
316 -748 428 -852 145 -133 276 -195 626 -293 346 -97 1430 -404 2041 -578
l515 -147 115 0 c91 0 129 5 185 22 351 112 578 520 499 901 -40 197 -165 369
-326 451 -43 21 -267 88 -693 206 -347 97 -866 241 -1155 321 -289 80 -528
149 -531 152 -3 4 -253 588 -554 1297 -657 1545 -616 1449 -1299 3053 -300
706 -546 1287 -546 1293 0 5 10 9 23 9 12 0 325 31 696 69 l674 70 72 -67 c39
-37 482 -470 984 -962 857 -842 915 -896 959 -907 162 -39 356 13 471 128 149
150 193 427 99 629 -19 41 -168 188 -873 866 -802 771 -1044 1006 -1142 1109
-51 54 -181 119 -348 174 -184 60 -300 82 -398 76 -45 -3 -217 -12 -382 -21
-1026 -52 -1774 -146 -2060 -259 -326 -129 -1044 -564 -1794 -1088 -62 -43
-117 -75 -121 -70 -7 6 -272 550 -792 1621 -77 158 -136 233 -229 289 -101 60
-249 79 -368 47z"/>
<path d="M8977 7835 c-263 -57 -485 -109 -493 -116 -20 -17 -16 -53 26 -251
18 -87 31 -160 29 -163 -3 -2 -217 -50 -475 -105 -309 -66 -478 -107 -494
-119 -46 -33 -70 -80 -70 -135 1 -49 151 -770 163 -782 6 -6 3274 690 3283
698 5 5 -154 746 -168 781 -17 42 -64 85 -107 97 -34 9 -103 -4 -556 -101
-284 -61 -522 -108 -529 -106 -6 3 -29 85 -50 183 -34 164 -55 225 -74 223 -4
0 -222 -47 -485 -104z m388 -77 c27 -118 55 -262 51 -265 -7 -7 -707 -155
-712 -151 -5 6 -64 281 -60 285 3 4 679 151 698 152 11 1 20 -8 23 -21z"/>
<path d="M10325 6473 c-346 -75 -631 -137 -633 -138 -2 -1 13 -76 33 -165 19
-90 34 -164 33 -166 -9 -8 -654 -141 -659 -136 -3 4 -21 77 -38 162 -18 85
-34 157 -36 159 -5 4 -1274 -267 -1296 -277 -14 -6 -3 -68 91 -504 59 -274
113 -511 120 -528 17 -41 72 -88 114 -95 47 -9 3059 636 3095 663 38 28 61 64
68 105 4 27 -24 176 -103 547 -109 510 -109 510 -134 509 -14 0 -308 -62 -655
-136z"/>
<path d="M9350 6263 c-113 -25 -206 -46 -207 -47 -4 -4 39 -201 46 -208 5 -6
420 77 429 87 8 8 -42 215 -52 214 -6 0 -103 -21 -216 -46z"/>
</g>
</svg>
